<svg xmlns="http://www.w3.org/2000/svg" viewBox="0 0 512 512">
  <defs>
    <linearGradient id="bgGradient" x1="0%" y1="0%" x2="100%" y2="100%">
      <stop offset="0%" style="stop-color:#0071e3"/>
      <stop offset="100%" style="stop-color:#004ea8"/>
    </linearGradient>
  </defs>
  
  <!-- Full background -->
  <rect width="512" height="512" fill="url(#bgGradient)"/>
  
  <!-- Large bold S lettermark -->
  <g transform="translate(256, 256)">
    <path d="M 100 -130 L -50 -130 C -90 -130 -120 -100 -120 -60 C -120 -20 -90 10 -50 10 L 50 10 C 75 10 90 25 90 50 C 90 75 75 90 50 90 L -100 90 L -100 150 L 50 150 C 90 150 120 120 120 80 C 120 40 90 10 50 10 L -50 10 C -75 10 -90 -5 -90 -30 C -90 -55 -75 -70 -50 -70 L 100 -70 Z" 
          fill="white" 
          stroke="none"/>
  </g>
</svg>